<svg width="102" height="36" viewBox="0 0 102 36" fill="none" xmlns="http://www.w3.org/2000/svg">
  <path d="M6.8204 20.7459C3.70598 25.197 4.22355 28.2074 8.98069 30.5761C22.7498 37.4418 56.4396 30.276 56.4396 30.276L57.4297 30.8485C57.4297 30.8485 48.3133 32.838 43.6732 33.7522C31.0976 36.2327 12.3251 36.7457 3.18391 31.7858C-0.0160229 29.8558 -0.227556 26.7668 2.45931 24.135C3.69401 22.9205 6.76756 20.6897 6.76756 20.6897C6.76756 20.6897 6.78605 20.6897 6.8204 20.7459Z" fill="url(#paint0_linear_4007_52950)" />
  <path d="M50.1614 23.1724H49.1695C48.6284 23.1724 48.3038 22.8045 47.6211 21.982C46.9383 21.1595 40.8941 13.296 40.8941 13.296V23.1724H38.3484C38.3484 18.4828 38.3481 13.7931 38.3484 9.10345L40.0616 9.10348C41.3241 9.10348 41.5044 9.29617 42.2259 10.3562L48.2436 18.3543V9.10351H50.7927V21.7222C50.7927 22.6746 50.7927 23.1724 50.1614 23.1724Z" fill="#09081C" />
  <path d="M70.0305 23.1724H68.9724C68.3953 23.1724 68.049 22.8045 67.3207 21.982C66.5925 21.1595 60.1453 13.296 60.1453 13.296V23.1724H57.4299C57.4299 18.4828 57.4295 13.7931 57.4299 9.10345L59.2573 9.10348C60.604 9.10348 60.7963 9.29617 61.5658 10.3562L67.9847 18.3543V9.10351H70.7038V21.7222C70.7038 22.6746 70.7038 23.1724 70.0305 23.1724Z" fill="#09081C" />
  <path d="M36.2742 23.1724H33.7853V9.10345H36.2742V23.1724Z" fill="#09081C" />
  <path d="M55.3557 23.1724H52.8668V9.10345H55.3557V23.1724Z" fill="#09081C" />
  <path d="M79.2139 36C78.4475 36 77.7662 35.78 77.1701 35.3401C76.5825 34.9002 76.1184 34.2658 75.7777 33.4371C75.4371 32.6084 75.2668 31.6006 75.2668 30.4138C75.2668 29.227 75.4371 28.2192 75.7777 27.3905C76.1184 26.5618 76.5825 25.9274 77.1701 25.4875C77.7662 25.0476 78.4475 24.8276 79.2139 24.8276C79.9718 24.8276 80.6446 25.0476 81.2322 25.4875C81.8283 25.9274 82.2967 26.5618 82.6373 27.3905C82.9779 28.2192 83.1482 29.227 83.1482 30.4138C83.1482 31.6006 82.9779 32.6084 82.6373 33.4371C82.2967 34.2658 81.8283 34.9002 81.2322 35.3401C80.6446 35.78 79.9718 36 79.2139 36ZM79.2139 33.5138C79.4864 33.5138 79.7248 33.4115 79.9292 33.2069C80.1421 33.0023 80.3082 32.6749 80.4274 32.2247C80.5466 31.7643 80.6062 31.1607 80.6062 30.4138C80.6062 29.6567 80.5466 29.0531 80.4274 28.6029C80.3082 28.1527 80.1421 27.8253 79.9292 27.6207C79.7248 27.4161 79.4864 27.3138 79.2139 27.3138C78.9414 27.3138 78.6987 27.4161 78.4858 27.6207C78.2814 27.8253 78.1153 28.1527 77.9876 28.6029C77.8684 29.0531 77.8088 29.6567 77.8088 30.4138C77.8088 31.1607 77.8684 31.7643 77.9876 32.2247C78.1153 32.6749 78.2814 33.0023 78.4858 33.2069C78.6987 33.4115 78.9414 33.5138 79.2139 33.5138Z" fill="#09081C" />
  <path d="M88.5476 36C87.7408 36 87.0237 35.78 86.3962 35.3401C85.7776 34.9002 85.2891 34.2658 84.9305 33.4371C84.572 32.6084 84.3927 31.6006 84.3927 30.4138C84.3927 29.227 84.572 28.2192 84.9305 27.3905C85.2891 26.5618 85.7776 25.9274 86.3962 25.4875C87.0237 25.0476 87.7408 24.8276 88.5476 24.8276C89.3454 24.8276 90.0535 25.0476 90.6721 25.4875C91.2995 25.9274 91.7926 26.5618 92.1511 27.3905C92.5097 28.2192 92.689 29.227 92.689 30.4138C92.689 31.6006 92.5097 32.6084 92.1511 33.4371C91.7926 34.2658 91.2995 34.9002 90.6721 35.3401C90.0535 35.78 89.3454 36 88.5476 36ZM88.5476 33.5138C88.8344 33.5138 89.0854 33.4115 89.3005 33.2069C89.5247 33.0023 89.6994 32.6749 89.8249 32.2247C89.9504 31.7643 90.0132 31.1607 90.0132 30.4138C90.0132 29.6567 89.9504 29.0531 89.8249 28.6029C89.6994 28.1527 89.5247 27.8253 89.3005 27.6207C89.0854 27.4161 88.8344 27.3138 88.5476 27.3138C88.2607 27.3138 88.0052 27.4161 87.7811 27.6207C87.566 27.8253 87.3912 28.1527 87.2567 28.6029C87.1312 29.0531 87.0685 29.6567 87.0685 30.4138C87.0685 31.1607 87.1312 31.7643 87.2567 32.2247C87.3912 32.6749 87.566 33.0023 87.7811 33.2069C88.0052 33.4115 88.2607 33.5138 88.5476 33.5138Z" fill="#09081C" />
  <path d="M71.3834 35.5862V27.1791H69.4594V24.8276H74.0223V35.5862H71.3834Z" fill="#09081C" />
  <path d="M57.4297 35.5862L60.7893 30.0548L57.4337 24.8276L60.0445 24.8276L62.2001 28.3575L64.7747 24.8276H67.3853L63.6088 30.0548L67.3853 35.5862H64.804L62.2001 31.6552L60.042 35.5862H57.4297Z" fill="#09081C" />
  <path d="M81.8524 19.9078V15.9242H84.5689V21.4429C83.1556 22.57 81.21 23.1724 79.3745 23.1724C75.3365 23.1724 72.3631 20.2381 72.3631 16.1379C72.3631 12.0377 75.3365 9.10345 79.4296 9.10345C81.6872 9.10345 83.5594 9.9196 84.8075 11.4548L82.8986 13.3203C81.9625 12.2709 80.8796 11.7851 79.5764 11.7851C77.0802 11.7851 75.3732 13.5534 75.3732 16.1379C75.3732 18.6836 77.0802 20.4908 79.5397 20.4908C80.3473 20.4908 81.0999 20.3353 81.8524 19.9078Z" fill="#09081C" />
  <path fill-rule="evenodd" clip-rule="evenodd" d="M24.6594 18.9325C24.6594 18.9325 26.2675 13.2741 27.2124 10.4676C27.6739 9.09658 28.3548 9.10064 29.2544 9.10601C29.3115 9.10635 29.3695 9.1067 29.4283 9.1067H29.6665C29.745 9.1067 29.8231 9.10587 29.9005 9.10505C30.8658 9.09481 31.7111 9.08585 31.7111 10.7052L31.7112 23.1477H29.0675V13.967L26.7451 21.8331L26.7164 21.9235C26.4481 22.7691 26.3202 23.1724 25.6634 23.1724H23.6553C22.9985 23.1724 22.8706 22.7691 22.6023 21.9235L22.5736 21.8331L20.2512 13.967L20.2512 23.1477H17.6075L17.6076 10.7052C17.6076 9.08585 18.4529 9.09481 19.4182 9.10505C19.4956 9.10587 19.5737 9.1067 19.6522 9.1067H19.8904C19.9492 9.1067 20.0072 9.10635 20.0643 9.10601C20.9639 9.10064 21.6448 9.09658 22.1063 10.4676C23.0503 13.2716 24.6594 18.9325 24.6594 18.9325Z" fill="#09081C" />
  <path d="M93.7723 18.1382C97.5914 12.698 96.9567 9.0185 91.1232 6.12345C74.2384 -2.26791 32.9254 6.49027 32.9254 6.49027L31.7112 5.79049C31.7112 5.79049 42.8905 3.3589 48.5806 2.24152C64.0017 -0.790173 87.022 -1.41717 98.2316 4.64489C102.156 7.00382 102.415 10.7792 99.1202 13.996C97.6061 15.4803 93.8371 18.2069 93.8371 18.2069C93.8371 18.2069 93.8144 18.2069 93.7723 18.1382Z" fill="url(#paint1_linear_4007_52950)" />
  <defs>
    <linearGradient id="paint0_linear_4007_52950" x1="0.600098" y1="18" x2="101.4" y2="18" gradientUnits="userSpaceOnUse">
      <stop stop-color="#F023FA" />
      <stop offset="1" stop-color="#57ABFE" />
    </linearGradient>
    <linearGradient id="paint1_linear_4007_52950" x1="31.7112" y1="9.10345" x2="101.4" y2="9.10345" gradientUnits="userSpaceOnUse">
      <stop stop-color="#F023FA" />
      <stop offset="1" stop-color="#57ABFE" />
    </linearGradient>
  </defs>
</svg>