<svg width="32" height="32" viewBox="0 0 32 32" fill="none" xmlns="http://www.w3.org/2000/svg">
  <path d="M12.1198 12C12.4333 11.1088 13.052 10.3574 13.8664 9.8788C14.6808 9.40017 15.6384 9.22521 16.5694 9.38491C17.5004 9.54461 18.3449 10.0287 18.9533 10.7513C19.5616 11.474 19.8946 12.3887 19.8932 13.3333C19.8932 16 15.8932 17.3333 15.8932 17.3333M15.9998 22.6666H16.0132M29.3332 16C29.3332 23.3638 23.3636 29.3333 15.9998 29.3333C8.63604 29.3333 2.6665 23.3638 2.6665 16C2.6665 8.63616 8.63604 2.66663 15.9998 2.66663C23.3636 2.66663 29.3332 8.63616 29.3332 16Z" stroke="#4263F7" stroke-width="2" stroke-linecap="round" stroke-linejoin="round" />
</svg>