<svg width="16" height="16" viewBox="0 0 16 16" fill="none" xmlns="http://www.w3.org/2000/svg">
<path fill-rule="evenodd" clip-rule="evenodd" d="M1.95856 7.1755C5.71589 5.48736 8.21719 4.36563 9.47321 3.82142C13.048 2.27766 13.7995 2.01111 14.2826 2C14.3899 2 14.6261 2.02221 14.7871 2.15549C14.916 2.26655 14.9482 2.41093 14.9696 2.52199C14.9911 2.63306 15.0126 2.86629 14.9911 3.04399C14.7979 5.15417 13.9605 10.2741 13.5311 12.6287C13.3486 13.6282 12.9944 13.9614 12.6508 13.9947C11.8994 14.0614 11.3304 13.4838 10.6111 12.9952C9.47321 12.2288 8.83983 11.7513 7.7341 10.996C6.45661 10.1298 7.28323 9.65219 8.01322 8.87475C8.20645 8.67484 11.5022 5.5651 11.5666 5.28744C11.5773 5.25412 11.5773 5.12085 11.5022 5.05421C11.427 4.98757 11.3197 5.00979 11.2338 5.032C11.1157 5.05421 9.31218 6.29811 5.80177 8.75259C5.28648 9.11909 4.82486 9.29679 4.40619 9.28569C3.94458 9.27458 3.06429 9.01913 2.39871 8.79701C1.59356 8.53046 0.949452 8.38608 1.00313 7.91962C1.03533 7.67528 1.35739 7.43094 1.95856 7.1755Z" fill="#239BD5"/>
</svg>
