<svg xmlns="http://www.w3.org/2000/svg">

  <symbol id="search1" width="18" height="18" viewBox="0 0 18 18" fill="none" xmlns="http://www.w3.org/2000/svg">
    <path d="M15.75 15.75L11.2501 11.25M12.75 7.5C12.75 10.3995 10.3995 12.75 7.5 12.75C4.6005 12.75 2.25 10.3995 2.25 7.5C2.25 4.6005 4.6005 2.25 7.5 2.25C10.3995 2.25 12.75 4.6005 12.75 7.5Z" stroke="#9D9CA4" stroke-width="1.3" stroke-linecap="round" stroke-linejoin="round" />
  </symbol>

  <symbol id="search2" width="20" height="20" viewBox="0 0 20 20" fill="none" xmlns="http://www.w3.org/2000/svg">
    <path d="M17.5 17.5L12.5001 12.5M14.1667 8.33333C14.1667 11.555 11.555 14.1667 8.33333 14.1667C5.11167 14.1667 2.5 11.555 2.5 8.33333C2.5 5.11167 5.11167 2.5 8.33333 2.5C11.555 2.5 14.1667 5.11167 14.1667 8.33333Z" stroke="currentColor" stroke-width="1.3" stroke-linecap="round" stroke-linejoin="round" />
  </symbol>

  <symbol id="catalogDrop" width="20" height="20" viewBox="0 0 20 20" fill="none" xmlns="http://www.w3.org/2000/svg">
    <path d="M5 8.75L10 13.75L15 8.75" stroke="#4263F7" stroke-width="1.3" stroke-linecap="round" stroke-linejoin="round" />
  </symbol>

  <symbol id="like" width="16" height="16" viewBox="0 0 16 16" fill="none" xmlns="http://www.w3.org/2000/svg">
    <path fill-rule="evenodd" clip-rule="evenodd" d="M7.9956 3.42388C6.6627 1.8656 4.43999 1.44643 2.76996 2.87334C1.09993 4.30026 0.864808 6.68598 2.17629 8.3736C3.26671 9.77674 6.56668 12.7361 7.64823 13.6939C7.76923 13.801 7.82973 13.8546 7.9003 13.8757C7.9619 13.8941 8.0293 13.8941 8.09089 13.8757C8.16146 13.8546 8.22196 13.801 8.34296 13.6939C9.42452 12.7361 12.7245 9.77674 13.8149 8.3736C15.1264 6.68598 14.92 4.28525 13.2212 2.87334C11.5225 1.46144 9.3285 1.8656 7.9956 3.42388Z" stroke="currentColor" stroke-width="1.3" stroke-linecap="round" stroke-linejoin="round" />
  </symbol>

  <symbol id="comparison" width="16" height="16" viewBox="0 0 16 16" fill="none" xmlns="http://www.w3.org/2000/svg">
    <path d="M2 7.33333L2 14M10 7.33333L10 14M6 2L6 14M14 2V14" stroke="currentColor" stroke-width="1.3" stroke-linecap="round" stroke-linejoin="round" />
  </symbol>

  <symbol id="tg" width="14" height="12" viewBox="0 0 14 12" fill="none" xmlns="http://www.w3.org/2000/svg">
    <path fill-rule="evenodd" clip-rule="evenodd" d="M0.958561 5.1755C4.71589 3.48736 7.21719 2.36563 8.47321 1.82142C12.048 0.277656 12.7995 0.0111062 13.2826 0C13.3899 0 13.6261 0.0222126 13.7871 0.155487C13.916 0.26655 13.9482 0.410931 13.9696 0.521993C13.9911 0.633055 14.0126 0.866286 13.9911 1.04399C13.7979 3.15417 12.9605 8.27414 12.5311 10.6287C12.3486 11.6282 11.9944 11.9614 11.6508 11.9947C10.8994 12.0614 10.3304 11.4838 9.61114 10.9952C8.47321 10.2288 7.83983 9.75127 6.7341 8.99604C5.45661 8.12976 6.28323 7.65219 7.01322 6.87475C7.20645 6.67484 10.5022 3.5651 10.5666 3.28744C10.5773 3.25412 10.5773 3.12085 10.5022 3.05421C10.427 2.98757 10.3197 3.00979 10.2338 3.032C10.1157 3.05421 8.31218 4.29811 4.80177 6.75259C4.28648 7.11909 3.82486 7.29679 3.40619 7.28569C2.94458 7.27458 2.06429 7.01913 1.39871 6.79701C0.593565 6.53046 -0.0505481 6.38608 0.00312793 5.91962C0.0353336 5.67528 0.35739 5.43094 0.958561 5.1755Z" fill="currentColor" />
  </symbol>

  <symbol id="wu" width="16" height="16" viewBox="0 0 16 16" fill="none" xmlns="http://www.w3.org/2000/svg">
    <path d="M0 16L1.13027 11.8917C0.432005 10.6865 0.0652266 9.3193 0.0669134 7.928C0.0687541 3.55644 3.64224 0 8.03351 0C10.1645 0.00107791 12.1646 0.826646 13.6689 2.32526C15.1731 3.82387 16.0008 5.81584 16 7.93436C15.9981 12.3056 12.424 15.8627 8.0334 15.8627H8.02994C6.69676 15.8621 5.38675 15.5292 4.22313 14.8975L0 16Z" fill="currentColor" />
    <path d="M8.03574 1.33931C4.38333 1.33931 1.41304 4.29525 1.41174 7.92854C1.40994 9.16921 1.76089 10.3851 2.424 11.4355L2.58154 11.6848L1.91251 14.1164L4.41863 13.4622L4.66062 13.6049C5.67699 14.2054 6.84234 14.523 8.03076 14.5236H8.03325C11.6828 14.5236 14.6531 11.5673 14.6545 7.93383C14.6573 7.06779 14.4875 6.20982 14.1549 5.40957C13.8223 4.60932 13.3336 3.8827 12.717 3.27178C12.1038 2.65751 11.3743 2.17042 10.5708 1.83871C9.76727 1.507 8.90562 1.33726 8.03574 1.33931Z" fill="#00B327" />
    <path fill-rule="evenodd" clip-rule="evenodd" d="M6.0419 4.61351C5.8927 4.28357 5.7357 4.27688 5.59397 4.27117L5.21242 4.26653C5.07967 4.26653 4.86399 4.31612 4.68165 4.51445C4.49932 4.71279 3.98491 5.19213 3.98491 6.1671C3.98491 7.14206 4.69822 8.08415 4.79762 8.21652C4.89701 8.34889 6.17465 10.4134 8.19797 11.2077C9.87936 11.8678 10.2215 11.7365 10.5866 11.7035C10.9517 11.6706 11.7643 11.2242 11.9301 10.7615C12.0958 10.2987 12.0959 9.90226 12.0462 9.81937C11.9965 9.73647 11.8638 9.68721 11.6646 9.58805C11.4654 9.48888 10.4869 9.00953 10.3044 8.94335C10.122 8.87717 9.98936 8.84429 9.85651 9.04263C9.72366 9.24096 9.34264 9.68711 9.22646 9.81937C9.11028 9.95162 8.99432 9.96822 8.7951 9.86916C8.59587 9.7701 7.95489 9.56078 7.19437 8.88568C6.60265 8.36042 6.20323 7.71174 6.08695 7.51351C5.97066 7.31528 6.0746 7.20792 6.17443 7.10919C6.26376 7.02037 6.37344 6.87776 6.47316 6.7621C6.57288 6.64644 6.60569 6.56377 6.67195 6.43172C6.73821 6.29968 6.70519 6.1837 6.65539 6.08464C6.60558 5.98558 6.21882 5.00544 6.0419 4.61351Z" fill="currentColor" />
  </symbol>

  <symbol id="closeSearch" width="18" height="18" viewBox="0 0 18 18" fill="none" xmlns="http://www.w3.org/2000/svg">
    <path d="M13.5 4.5L4.5 13.5M4.5 4.5L13.5 13.5" stroke="#9D9CA4" stroke-width="1.3" stroke-linecap="round" stroke-linejoin="round" />
  </symbol>

  <symbol id="burgerClose" width="20" height="20" viewBox="0 0 20 20" fill="none" xmlns="http://www.w3.org/2000/svg">
    <path d="M15 5L5 15M5 5L15 15" stroke="#18172A" stroke-width="1.3" stroke-linecap="round" stroke-linejoin="round" />
  </symbol>

  <symbol id="footerTg" width="20" height="20" viewBox="0 0 20 20" fill="none" xmlns="http://www.w3.org/2000/svg">
    <path fill-rule="evenodd" clip-rule="evenodd" d="M3.0955 9.03809C7.38958 7.06858 10.2482 5.7599 11.6837 5.12499C15.7692 3.32393 16.628 3.01296 17.1801 3C17.3028 3 17.5727 3.02591 17.7567 3.1814C17.904 3.31097 17.9408 3.47942 17.9653 3.60899C17.9898 3.73856 18.0144 4.01067 17.9898 4.21798C17.769 6.67986 16.812 12.6532 16.3213 15.4001C16.1127 16.5663 15.7078 16.955 15.3152 16.9938C14.4564 17.0716 13.8062 16.3978 12.9842 15.8277C11.6837 14.9336 10.9598 14.3765 9.69612 13.4954C8.23613 12.4847 9.18083 11.9276 10.0151 11.0205C10.2359 10.7873 14.0025 7.15928 14.0761 6.83535C14.0884 6.79648 14.0884 6.64099 14.0025 6.56325C13.9166 6.4855 13.7939 6.51142 13.6958 6.53733C13.5608 6.56325 11.4996 8.01446 7.48773 10.878C6.89883 11.3056 6.37127 11.5129 5.89279 11.5C5.36523 11.487 4.35919 11.189 3.59852 10.9298C2.67836 10.6189 1.94223 10.4504 2.00357 9.90622C2.04038 9.62116 2.40845 9.3361 3.0955 9.03809Z" fill="#28A6E6" />
  </symbol>

  <symbol id="footerUt" width="28" height="20" viewBox="0 0 28 20" fill="none" xmlns="http://www.w3.org/2000/svg">
    <path fill-rule="evenodd" clip-rule="evenodd" d="M23.9877 1.7727C25.0883 2.0608 25.9534 2.90658 26.2479 3.98283C26.7804 5.93162 26.7825 10 26.7825 10C26.7825 10 26.7825 14.0684 26.2479 16.0172C25.9534 17.0935 25.0883 17.9392 23.9877 18.2273C21.9948 18.75 13.9998 18.75 13.9998 18.75C13.9998 18.75 6.00497 18.75 4.01203 18.2273C2.91139 17.9392 2.04645 17.0935 1.75182 16.0172C1.21729 14.0684 1.21729 10 1.21729 10C1.21729 10 1.21729 5.93162 1.75182 3.98283C2.04645 2.90658 2.91139 2.0608 4.01203 1.7727C6.00497 1.25 13.9998 1.25 13.9998 1.25C13.9998 1.25 21.9948 1.25 23.9877 1.7727ZM18.0827 10.0003L11.4409 13.7497V6.25091L18.0827 10.0003Z" fill="#FF0000" />
  </symbol>

  <symbol id="footerFixedBtn" width="16" height="16" viewBox="0 0 16 16" fill="none" xmlns="http://www.w3.org/2000/svg">
    <path d="M4.66699 11.3332L11.3337 4.6665M11.3337 4.6665H4.66699M11.3337 4.6665V11.3332" stroke="#EBEBED" stroke-width="1.3" stroke-linecap="round" stroke-linejoin="round" />
  </symbol>

  <symbol id="card1Tg" width="20" height="20" viewBox="0 0 20 20" fill="none" xmlns="http://www.w3.org/2000/svg">
    <path fill-rule="evenodd" clip-rule="evenodd" d="M2.4482 8.96938C7.14486 6.85919 10.2715 5.45703 11.8415 4.77678C16.31 2.84707 17.2494 2.51388 17.8532 2.5C17.9874 2.5 18.2826 2.52777 18.4839 2.69436C18.645 2.83319 18.6852 3.01366 18.712 3.15249C18.7389 3.29132 18.7657 3.58286 18.7389 3.80498C18.4973 6.44271 17.4507 12.8427 16.9139 15.7858C16.6858 17.0353 16.2429 17.4518 15.8135 17.4934C14.8742 17.5767 14.163 16.8548 13.2639 16.244C11.8415 15.286 11.0498 14.6891 9.66763 13.7451C8.07077 12.6622 9.10403 12.0652 10.0165 11.0934C10.2581 10.8436 14.3777 6.95637 14.4582 6.6093C14.4716 6.56766 14.4716 6.40106 14.3777 6.31776C14.2838 6.23447 14.1496 6.26223 14.0422 6.29C13.8946 6.31777 11.6402 7.87264 7.25221 10.9407C6.6081 11.3989 6.03108 11.621 5.50774 11.6071C4.93072 11.5932 3.83036 11.2739 2.99838 10.9963C1.99196 10.6631 1.18681 10.4826 1.25391 9.89952C1.29417 9.5941 1.69674 9.28868 2.4482 8.96938Z" fill="#4263F7" />
  </symbol>

  <symbol id="card1Ut" width="28" height="20" viewBox="0 0 28 20" fill="none" xmlns="http://www.w3.org/2000/svg">
    <path d="M26.2479 3.98284C25.9534 2.90658 25.0883 2.0608 23.9877 1.7727C21.9948 1.25 13.9998 1.25 13.9998 1.25C13.9998 1.25 6.00497 1.25 4.01203 1.7727C2.91139 2.0608 2.04645 2.90658 1.75182 3.98284C1.21729 5.93162 1.21729 10 1.21729 10C1.21729 10 1.21729 14.0684 1.75182 16.0172C2.04645 17.0935 2.91139 17.9392 4.01203 18.2273C6.00497 18.75 13.9998 18.75 13.9998 18.75C13.9998 18.75 21.9948 18.75 23.9877 18.2273C25.0883 17.9392 25.9534 17.0935 26.2479 16.0172C26.7825 14.0684 26.7825 10 26.7825 10C26.7825 10 26.7804 5.93162 26.2479 3.98284Z" fill="#4263F7" />
    <path d="M11.4409 13.7497L18.0827 10.0003L11.4409 6.25091V13.7497Z" fill="#FAFAFA" />
  </symbol>

  <symbol id="catalogFactoty" width="20" height="20" viewBox="0 0 20 20" fill="none" xmlns="http://www.w3.org/2000/svg">
    <path d="M5.8335 14.1666L14.1668 5.83325M14.1668 5.83325H5.8335M14.1668 5.83325V14.1666" stroke="#EBEBED" stroke-width="1.5" stroke-linecap="round" stroke-linejoin="round" />
  </symbol>

  <symbol id="star" width="16" height="16" viewBox="0 0 16 16" fill="none" xmlns="http://www.w3.org/2000/svg">
    <path d="M7.52144 2.30223C7.6751 1.99094 7.75193 1.83529 7.85623 1.78556C7.94697 1.7423 8.0524 1.7423 8.14314 1.78556C8.24744 1.83529 8.32427 1.99094 8.47793 2.30223L9.93571 5.25554C9.98108 5.34744 10.0038 5.39339 10.0369 5.42907C10.0663 5.46066 10.1015 5.48625 10.1406 5.50443C10.1847 5.52497 10.2354 5.53238 10.3368 5.5472L13.5977 6.02382C13.9411 6.07401 14.1127 6.09911 14.1922 6.18298C14.2613 6.25595 14.2938 6.35622 14.2807 6.45587C14.2656 6.57041 14.1413 6.69147 13.8927 6.93361L11.534 9.23097C11.4604 9.30258 11.4237 9.33839 11.4 9.38099C11.379 9.41872 11.3655 9.46016 11.3603 9.50302C11.3544 9.55143 11.3631 9.60202 11.3804 9.70318L11.937 12.9481C11.9957 13.2903 12.025 13.4615 11.9699 13.563C11.9219 13.6514 11.8366 13.7133 11.7377 13.7317C11.6241 13.7527 11.4704 13.6719 11.1631 13.5103L8.24793 11.9772C8.1571 11.9295 8.11168 11.9056 8.06384 11.8962C8.02147 11.8879 7.9779 11.8879 7.93554 11.8962C7.88769 11.9056 7.84228 11.9295 7.75145 11.9772L4.83629 13.5103C4.52895 13.6719 4.37528 13.7527 4.26166 13.7317C4.1628 13.7133 4.07749 13.6514 4.0295 13.563C3.97434 13.4615 4.00369 13.2903 4.06239 12.9481L4.61893 9.70318C4.63628 9.60202 4.64496 9.55143 4.63909 9.50302C4.63389 9.46016 4.62042 9.41872 4.59941 9.38099C4.57569 9.33839 4.53893 9.30258 4.4654 9.23097L2.10671 6.93361C1.85812 6.69147 1.73382 6.57041 1.71869 6.45587C1.70553 6.35622 1.73804 6.25595 1.80717 6.18298C1.88663 6.09911 2.05832 6.07401 2.4017 6.02382L5.66255 5.5472C5.76396 5.53238 5.81466 5.52497 5.85882 5.50443C5.89792 5.48625 5.93312 5.46066 5.96246 5.42907C5.99561 5.39339 6.01829 5.34744 6.06366 5.25554L7.52144 2.30223Z" fill="#F69152" />
  </symbol>

  <symbol id="likeCard" width="16" height="16" viewBox="0 0 16 16" fill="none" xmlns="http://www.w3.org/2000/svg">
    <path fill-rule="evenodd" clip-rule="evenodd" d="M7.99511 3.42388C6.66221 1.8656 4.4395 1.44643 2.76947 2.87334C1.09944 4.30026 0.86432 6.68598 2.17581 8.3736C3.26622 9.77674 6.56619 12.7361 7.64774 13.6939C7.76874 13.801 7.82925 13.8546 7.89982 13.8757C7.96141 13.8941 8.02881 13.8941 8.0904 13.8757C8.16097 13.8546 8.22147 13.801 8.34248 13.6939C9.42403 12.7361 12.724 9.77674 13.8144 8.3736C15.1259 6.68598 14.9195 4.28525 13.2207 2.87334C11.522 1.46144 9.32801 1.8656 7.99511 3.42388Z" stroke="#18172A" stroke-width="1.3" stroke-linecap="round" stroke-linejoin="round" />
  </symbol>

  <symbol id="comparCard" width="16" height="16" viewBox="0 0 16 16" fill="none" xmlns="http://www.w3.org/2000/svg">
    <path d="M2 7.33333L2 14M10 7.33333L10 14M6 2L6 14M14 2V14" stroke="#18172A" stroke-width="1.3" stroke-linecap="round" stroke-linejoin="round" />
  </symbol>

  <symbol id="btnSwiper" width="16" height="16" viewBox="0 0 16 16" fill="none" xmlns="http://www.w3.org/2000/svg">
    <path d="M6 13L10 9L6 5" stroke="#4263F7" stroke-width="1.3" stroke-linecap="round" stroke-linejoin="round" />
  </symbol>

  <symbol id="starReviews" width="17" height="16" viewBox="0 0 17 16" fill="none" xmlns="http://www.w3.org/2000/svg">
    <path d="M8.18843 2.30205C8.34209 1.99076 8.41892 1.83511 8.52322 1.78538C8.61396 1.74211 8.71939 1.74211 8.81014 1.78538C8.91444 1.83511 8.99126 1.99076 9.14492 2.30205L10.6027 5.25536C10.6481 5.34726 10.6708 5.39321 10.7039 5.42889C10.7332 5.46048 10.7684 5.48607 10.8075 5.50425C10.8517 5.52479 10.9024 5.5322 11.0038 5.54702L14.2647 6.02364C14.608 6.07383 14.7797 6.09893 14.8592 6.1828C14.9283 6.25576 14.9608 6.35603 14.9477 6.45569C14.9325 6.57022 14.8082 6.69129 14.5596 6.93342L12.201 9.23078C12.1274 9.3024 12.0907 9.33821 12.067 9.38081C12.0459 9.41854 12.0325 9.45998 12.0273 9.50284C12.0214 9.55125 12.0301 9.60183 12.0474 9.703L12.604 12.9479C12.6627 13.2902 12.692 13.4613 12.6369 13.5628C12.5889 13.6512 12.5036 13.7132 12.4047 13.7315C12.2911 13.7526 12.1374 13.6717 11.8301 13.5101L8.91492 11.9771C8.82409 11.9293 8.77867 11.9054 8.73083 11.896C8.68847 11.8877 8.64489 11.8877 8.60253 11.896C8.55468 11.9054 8.50927 11.9293 8.41844 11.9771L5.50328 13.5101C5.19594 13.6717 5.04227 13.7526 4.92865 13.7315C4.82979 13.7132 4.74448 13.6512 4.69649 13.5628C4.64133 13.4613 4.67068 13.2902 4.72938 12.9479L5.28592 9.703C5.30327 9.60183 5.31195 9.55125 5.30608 9.50284C5.30088 9.45998 5.28741 9.41854 5.2664 9.38081C5.24268 9.33821 5.20592 9.3024 5.13239 9.23078L2.77371 6.93342C2.52511 6.69129 2.40081 6.57022 2.38568 6.45569C2.37252 6.35603 2.40504 6.25576 2.47417 6.1828C2.55362 6.09893 2.72531 6.07383 3.0687 6.02364L6.32954 5.54702C6.43095 5.5322 6.48165 5.52479 6.52581 5.50425C6.56491 5.48607 6.60011 5.46048 6.62946 5.42889C6.6626 5.39321 6.68529 5.34726 6.73065 5.25536L8.18843 2.30205Z" fill="#F69152" />
  </symbol>

  <symbol id="btnQuestion" width="20" height="20" viewBox="0 0 20 20" fill="none" xmlns="http://www.w3.org/2000/svg">
    <path d="M5 8.75L10 13.75L15 8.75" stroke="#9D9CA4" stroke-width="1.3" stroke-linecap="round" stroke-linejoin="round" />
  </symbol>

  <symbol id="markerMain" width="17" height="16" viewBox="0 0 17 16" fill="none" xmlns="http://www.w3.org/2000/svg">
    <path d="M7.23417 2.66666C8.07587 1.84187 9.22863 1.33333 10.5002 1.33333C13.0775 1.33333 15.1668 3.42267 15.1668 5.99999C15.1668 7.27155 14.6583 8.42433 13.8335 9.26602M5.50016 8.66666L6.50016 7.99999V11.6667M5.50016 11.6667H7.50016M11.1668 9.99999C11.1668 12.5773 9.07749 14.6667 6.50016 14.6667C3.92283 14.6667 1.8335 12.5773 1.8335 9.99999C1.8335 7.42267 3.92283 5.33333 6.50016 5.33333C9.07749 5.33333 11.1668 7.42267 11.1668 9.99999Z" stroke="#4263F7" stroke-width="1.3" stroke-linecap="round" stroke-linejoin="round" />
  </symbol>

  <symbol id="curve" width="33" height="32" viewBox="0 0 33 32" fill="none" xmlns="http://www.w3.org/2000/svg">
    <path d="M29.8332 9.33333L19.3417 19.8248C18.8136 20.3529 18.5496 20.6169 18.2452 20.7158C17.9774 20.8028 17.6889 20.8028 17.4211 20.7158C17.1167 20.6169 16.8527 20.3529 16.3247 19.8248L12.675 16.1752C12.147 15.6471 11.883 15.3831 11.5785 15.2842C11.3107 15.1972 11.0223 15.1972 10.7545 15.2842C10.45 15.3831 10.186 15.6471 9.65801 16.1752L3.1665 22.6667M29.8332 9.33333H20.4998M29.8332 9.33333V18.6667" stroke="#18172A" stroke-width="3" stroke-linecap="round" stroke-linejoin="round" />
  </symbol>

  <symbol id="crossOne" width="32" height="32" viewBox="0 0 32 32" fill="none" xmlns="http://www.w3.org/2000/svg">
    <path d="M22.6668 9.33334L9.3335 22.6667M9.3335 9.33334L22.6668 22.6667" stroke="#18172A" stroke-width="3" stroke-linecap="round" stroke-linejoin="round" />
  </symbol>
</svg>