<svg xmlns="http://www.w3.org/2000/svg">

  <symbol id="search1" width="18" height="18" viewBox="0 0 18 18" fill="none" xmlns="http://www.w3.org/2000/svg">
    <path d="M15.75 15.75L11.2501 11.25M12.75 7.5C12.75 10.3995 10.3995 12.75 7.5 12.75C4.6005 12.75 2.25 10.3995 2.25 7.5C2.25 4.6005 4.6005 2.25 7.5 2.25C10.3995 2.25 12.75 4.6005 12.75 7.5Z" stroke="#9D9CA4" stroke-width="1.3" stroke-linecap="round" stroke-linejoin="round" />
  </symbol>

  <symbol id="search2" width="20" height="20" viewBox="0 0 20 20" fill="none" xmlns="http://www.w3.org/2000/svg">
    <path d="M17.5 17.5L12.5001 12.5M14.1667 8.33333C14.1667 11.555 11.555 14.1667 8.33333 14.1667C5.11167 14.1667 2.5 11.555 2.5 8.33333C2.5 5.11167 5.11167 2.5 8.33333 2.5C11.555 2.5 14.1667 5.11167 14.1667 8.33333Z" stroke="currentColor" stroke-width="1.3" stroke-linecap="round" stroke-linejoin="round" />
  </symbol>

  <symbol id="catalogDrop" width="20" height="20" viewBox="0 0 20 20" fill="none" xmlns="http://www.w3.org/2000/svg">
    <path d="M5 8.75L10 13.75L15 8.75" stroke="#4263F7" stroke-width="1.3" stroke-linecap="round" stroke-linejoin="round" />
  </symbol>

  <symbol id="like" width="16" height="16" viewBox="0 0 16 16" fill="none" xmlns="http://www.w3.org/2000/svg">
    <path fill-rule="evenodd" clip-rule="evenodd" d="M7.9956 3.42388C6.6627 1.8656 4.43999 1.44643 2.76996 2.87334C1.09993 4.30026 0.864808 6.68598 2.17629 8.3736C3.26671 9.77674 6.56668 12.7361 7.64823 13.6939C7.76923 13.801 7.82973 13.8546 7.9003 13.8757C7.9619 13.8941 8.0293 13.8941 8.09089 13.8757C8.16146 13.8546 8.22196 13.801 8.34296 13.6939C9.42452 12.7361 12.7245 9.77674 13.8149 8.3736C15.1264 6.68598 14.92 4.28525 13.2212 2.87334C11.5225 1.46144 9.3285 1.8656 7.9956 3.42388Z" stroke="currentColor" stroke-width="1.3" stroke-linecap="round" stroke-linejoin="round" />
  </symbol>

  <symbol id="comparison" width="16" height="16" viewBox="0 0 16 16" fill="none" xmlns="http://www.w3.org/2000/svg">
    <path d="M2 7.33333L2 14M10 7.33333L10 14M6 2L6 14M14 2V14" stroke="currentColor" stroke-width="1.3" stroke-linecap="round" stroke-linejoin="round" />
  </symbol>

  <symbol id="tg" width="14" height="12" viewBox="0 0 14 12" fill="none" xmlns="http://www.w3.org/2000/svg">
    <path fill-rule="evenodd" clip-rule="evenodd" d="M0.958561 5.1755C4.71589 3.48736 7.21719 2.36563 8.47321 1.82142C12.048 0.277656 12.7995 0.0111062 13.2826 0C13.3899 0 13.6261 0.0222126 13.7871 0.155487C13.916 0.26655 13.9482 0.410931 13.9696 0.521993C13.9911 0.633055 14.0126 0.866286 13.9911 1.04399C13.7979 3.15417 12.9605 8.27414 12.5311 10.6287C12.3486 11.6282 11.9944 11.9614 11.6508 11.9947C10.8994 12.0614 10.3304 11.4838 9.61114 10.9952C8.47321 10.2288 7.83983 9.75127 6.7341 8.99604C5.45661 8.12976 6.28323 7.65219 7.01322 6.87475C7.20645 6.67484 10.5022 3.5651 10.5666 3.28744C10.5773 3.25412 10.5773 3.12085 10.5022 3.05421C10.427 2.98757 10.3197 3.00979 10.2338 3.032C10.1157 3.05421 8.31218 4.29811 4.80177 6.75259C4.28648 7.11909 3.82486 7.29679 3.40619 7.28569C2.94458 7.27458 2.06429 7.01913 1.39871 6.79701C0.593565 6.53046 -0.0505481 6.38608 0.00312793 5.91962C0.0353336 5.67528 0.35739 5.43094 0.958561 5.1755Z" fill="currentColor" />
  </symbol>

  <symbol id="wu" width="16" height="16" viewBox="0 0 16 16" fill="none" xmlns="http://www.w3.org/2000/svg">
    <path d="M0 16L1.13027 11.8917C0.432005 10.6865 0.0652266 9.3193 0.0669134 7.928C0.0687541 3.55644 3.64224 0 8.03351 0C10.1645 0.00107791 12.1646 0.826646 13.6689 2.32526C15.1731 3.82387 16.0008 5.81584 16 7.93436C15.9981 12.3056 12.424 15.8627 8.0334 15.8627H8.02994C6.69676 15.8621 5.38675 15.5292 4.22313 14.8975L0 16Z" fill="currentColor" />
    <path d="M8.03574 1.33931C4.38333 1.33931 1.41304 4.29525 1.41174 7.92854C1.40994 9.16921 1.76089 10.3851 2.424 11.4355L2.58154 11.6848L1.91251 14.1164L4.41863 13.4622L4.66062 13.6049C5.67699 14.2054 6.84234 14.523 8.03076 14.5236H8.03325C11.6828 14.5236 14.6531 11.5673 14.6545 7.93383C14.6573 7.06779 14.4875 6.20982 14.1549 5.40957C13.8223 4.60932 13.3336 3.8827 12.717 3.27178C12.1038 2.65751 11.3743 2.17042 10.5708 1.83871C9.76727 1.507 8.90562 1.33726 8.03574 1.33931Z" fill="#00B327" />
    <path fill-rule="evenodd" clip-rule="evenodd" d="M6.0419 4.61351C5.8927 4.28357 5.7357 4.27688 5.59397 4.27117L5.21242 4.26653C5.07967 4.26653 4.86399 4.31612 4.68165 4.51445C4.49932 4.71279 3.98491 5.19213 3.98491 6.1671C3.98491 7.14206 4.69822 8.08415 4.79762 8.21652C4.89701 8.34889 6.17465 10.4134 8.19797 11.2077C9.87936 11.8678 10.2215 11.7365 10.5866 11.7035C10.9517 11.6706 11.7643 11.2242 11.9301 10.7615C12.0958 10.2987 12.0959 9.90226 12.0462 9.81937C11.9965 9.73647 11.8638 9.68721 11.6646 9.58805C11.4654 9.48888 10.4869 9.00953 10.3044 8.94335C10.122 8.87717 9.98936 8.84429 9.85651 9.04263C9.72366 9.24096 9.34264 9.68711 9.22646 9.81937C9.11028 9.95162 8.99432 9.96822 8.7951 9.86916C8.59587 9.7701 7.95489 9.56078 7.19437 8.88568C6.60265 8.36042 6.20323 7.71174 6.08695 7.51351C5.97066 7.31528 6.0746 7.20792 6.17443 7.10919C6.26376 7.02037 6.37344 6.87776 6.47316 6.7621C6.57288 6.64644 6.60569 6.56377 6.67195 6.43172C6.73821 6.29968 6.70519 6.1837 6.65539 6.08464C6.60558 5.98558 6.21882 5.00544 6.0419 4.61351Z" fill="currentColor" />
  </symbol>

  <symbol id="closeSearch" width="18" height="18" viewBox="0 0 18 18" fill="none" xmlns="http://www.w3.org/2000/svg">
    <path d="M13.5 4.5L4.5 13.5M4.5 4.5L13.5 13.5" stroke="#9D9CA4" stroke-width="1.3" stroke-linecap="round" stroke-linejoin="round" />
  </symbol>

  <symbol id="burgerClose" width="20" height="20" viewBox="0 0 20 20" fill="none" xmlns="http://www.w3.org/2000/svg">
    <path d="M15 5L5 15M5 5L15 15" stroke="#18172A" stroke-width="1.3" stroke-linecap="round" stroke-linejoin="round" />
  </symbol>

  <symbol id="footerTg" width="20" height="20" viewBox="0 0 20 20" fill="none" xmlns="http://www.w3.org/2000/svg">
    <path fill-rule="evenodd" clip-rule="evenodd" d="M3.0955 9.03809C7.38958 7.06858 10.2482 5.7599 11.6837 5.12499C15.7692 3.32393 16.628 3.01296 17.1801 3C17.3028 3 17.5727 3.02591 17.7567 3.1814C17.904 3.31097 17.9408 3.47942 17.9653 3.60899C17.9898 3.73856 18.0144 4.01067 17.9898 4.21798C17.769 6.67986 16.812 12.6532 16.3213 15.4001C16.1127 16.5663 15.7078 16.955 15.3152 16.9938C14.4564 17.0716 13.8062 16.3978 12.9842 15.8277C11.6837 14.9336 10.9598 14.3765 9.69612 13.4954C8.23613 12.4847 9.18083 11.9276 10.0151 11.0205C10.2359 10.7873 14.0025 7.15928 14.0761 6.83535C14.0884 6.79648 14.0884 6.64099 14.0025 6.56325C13.9166 6.4855 13.7939 6.51142 13.6958 6.53733C13.5608 6.56325 11.4996 8.01446 7.48773 10.878C6.89883 11.3056 6.37127 11.5129 5.89279 11.5C5.36523 11.487 4.35919 11.189 3.59852 10.9298C2.67836 10.6189 1.94223 10.4504 2.00357 9.90622C2.04038 9.62116 2.40845 9.3361 3.0955 9.03809Z" fill="#28A6E6" />
  </symbol>

  <symbol id="footerUt" width="28" height="20" viewBox="0 0 28 20" fill="none" xmlns="http://www.w3.org/2000/svg">
    <path fill-rule="evenodd" clip-rule="evenodd" d="M23.9877 1.7727C25.0883 2.0608 25.9534 2.90658 26.2479 3.98283C26.7804 5.93162 26.7825 10 26.7825 10C26.7825 10 26.7825 14.0684 26.2479 16.0172C25.9534 17.0935 25.0883 17.9392 23.9877 18.2273C21.9948 18.75 13.9998 18.75 13.9998 18.75C13.9998 18.75 6.00497 18.75 4.01203 18.2273C2.91139 17.9392 2.04645 17.0935 1.75182 16.0172C1.21729 14.0684 1.21729 10 1.21729 10C1.21729 10 1.21729 5.93162 1.75182 3.98283C2.04645 2.90658 2.91139 2.0608 4.01203 1.7727C6.00497 1.25 13.9998 1.25 13.9998 1.25C13.9998 1.25 21.9948 1.25 23.9877 1.7727ZM18.0827 10.0003L11.4409 13.7497V6.25091L18.0827 10.0003Z" fill="#FF0000" />
  </symbol>

  <symbol id="footerFixedBtn" width="16" height="16" viewBox="0 0 16 16" fill="none" xmlns="http://www.w3.org/2000/svg">
    <path d="M4.66699 11.3332L11.3337 4.6665M11.3337 4.6665H4.66699M11.3337 4.6665V11.3332" stroke="#EBEBED" stroke-width="1.3" stroke-linecap="round" stroke-linejoin="round" />
  </symbol>

  <symbol id="card1Tg" width="20" height="20" viewBox="0 0 20 20" fill="none" xmlns="http://www.w3.org/2000/svg">
    <path fill-rule="evenodd" clip-rule="evenodd" d="M2.4482 8.96938C7.14486 6.85919 10.2715 5.45703 11.8415 4.77678C16.31 2.84707 17.2494 2.51388 17.8532 2.5C17.9874 2.5 18.2826 2.52777 18.4839 2.69436C18.645 2.83319 18.6852 3.01366 18.712 3.15249C18.7389 3.29132 18.7657 3.58286 18.7389 3.80498C18.4973 6.44271 17.4507 12.8427 16.9139 15.7858C16.6858 17.0353 16.2429 17.4518 15.8135 17.4934C14.8742 17.5767 14.163 16.8548 13.2639 16.244C11.8415 15.286 11.0498 14.6891 9.66763 13.7451C8.07077 12.6622 9.10403 12.0652 10.0165 11.0934C10.2581 10.8436 14.3777 6.95637 14.4582 6.6093C14.4716 6.56766 14.4716 6.40106 14.3777 6.31776C14.2838 6.23447 14.1496 6.26223 14.0422 6.29C13.8946 6.31777 11.6402 7.87264 7.25221 10.9407C6.6081 11.3989 6.03108 11.621 5.50774 11.6071C4.93072 11.5932 3.83036 11.2739 2.99838 10.9963C1.99196 10.6631 1.18681 10.4826 1.25391 9.89952C1.29417 9.5941 1.69674 9.28868 2.4482 8.96938Z" fill="#4263F7" />
  </symbol>

  <symbol id="card1Ut" width="28" height="20" viewBox="0 0 28 20" fill="none" xmlns="http://www.w3.org/2000/svg">
    <path d="M26.2479 3.98284C25.9534 2.90658 25.0883 2.0608 23.9877 1.7727C21.9948 1.25 13.9998 1.25 13.9998 1.25C13.9998 1.25 6.00497 1.25 4.01203 1.7727C2.91139 2.0608 2.04645 2.90658 1.75182 3.98284C1.21729 5.93162 1.21729 10 1.21729 10C1.21729 10 1.21729 14.0684 1.75182 16.0172C2.04645 17.0935 2.91139 17.9392 4.01203 18.2273C6.00497 18.75 13.9998 18.75 13.9998 18.75C13.9998 18.75 21.9948 18.75 23.9877 18.2273C25.0883 17.9392 25.9534 17.0935 26.2479 16.0172C26.7825 14.0684 26.7825 10 26.7825 10C26.7825 10 26.7804 5.93162 26.2479 3.98284Z" fill="#4263F7" />
    <path d="M11.4409 13.7497L18.0827 10.0003L11.4409 6.25091V13.7497Z" fill="#FAFAFA" />
  </symbol>

  <symbol id="catalogFactoty" width="20" height="20" viewBox="0 0 20 20" fill="none" xmlns="http://www.w3.org/2000/svg">
    <path d="M5.8335 14.1666L14.1668 5.83325M14.1668 5.83325H5.8335M14.1668 5.83325V14.1666" stroke="#EBEBED" stroke-width="1.5" stroke-linecap="round" stroke-linejoin="round" />
  </symbol>

  <symbol id="star" width="16" height="16" viewBox="0 0 16 16" fill="none" xmlns="http://www.w3.org/2000/svg">
    <path d="M7.52144 2.30223C7.6751 1.99094 7.75193 1.83529 7.85623 1.78556C7.94697 1.7423 8.0524 1.7423 8.14314 1.78556C8.24744 1.83529 8.32427 1.99094 8.47793 2.30223L9.93571 5.25554C9.98108 5.34744 10.0038 5.39339 10.0369 5.42907C10.0663 5.46066 10.1015 5.48625 10.1406 5.50443C10.1847 5.52497 10.2354 5.53238 10.3368 5.5472L13.5977 6.02382C13.9411 6.07401 14.1127 6.09911 14.1922 6.18298C14.2613 6.25595 14.2938 6.35622 14.2807 6.45587C14.2656 6.57041 14.1413 6.69147 13.8927 6.93361L11.534 9.23097C11.4604 9.30258 11.4237 9.33839 11.4 9.38099C11.379 9.41872 11.3655 9.46016 11.3603 9.50302C11.3544 9.55143 11.3631 9.60202 11.3804 9.70318L11.937 12.9481C11.9957 13.2903 12.025 13.4615 11.9699 13.563C11.9219 13.6514 11.8366 13.7133 11.7377 13.7317C11.6241 13.7527 11.4704 13.6719 11.1631 13.5103L8.24793 11.9772C8.1571 11.9295 8.11168 11.9056 8.06384 11.8962C8.02147 11.8879 7.9779 11.8879 7.93554 11.8962C7.88769 11.9056 7.84228 11.9295 7.75145 11.9772L4.83629 13.5103C4.52895 13.6719 4.37528 13.7527 4.26166 13.7317C4.1628 13.7133 4.07749 13.6514 4.0295 13.563C3.97434 13.4615 4.00369 13.2903 4.06239 12.9481L4.61893 9.70318C4.63628 9.60202 4.64496 9.55143 4.63909 9.50302C4.63389 9.46016 4.62042 9.41872 4.59941 9.38099C4.57569 9.33839 4.53893 9.30258 4.4654 9.23097L2.10671 6.93361C1.85812 6.69147 1.73382 6.57041 1.71869 6.45587C1.70553 6.35622 1.73804 6.25595 1.80717 6.18298C1.88663 6.09911 2.05832 6.07401 2.4017 6.02382L5.66255 5.5472C5.76396 5.53238 5.81466 5.52497 5.85882 5.50443C5.89792 5.48625 5.93312 5.46066 5.96246 5.42907C5.99561 5.39339 6.01829 5.34744 6.06366 5.25554L7.52144 2.30223Z" fill="#F69152" />
  </symbol>

  <symbol id="likeCard" width="16" height="16" viewBox="0 0 16 16" fill="none" xmlns="http://www.w3.org/2000/svg">
    <path fill-rule="evenodd" clip-rule="evenodd" d="M7.99511 3.42388C6.66221 1.8656 4.4395 1.44643 2.76947 2.87334C1.09944 4.30026 0.86432 6.68598 2.17581 8.3736C3.26622 9.77674 6.56619 12.7361 7.64774 13.6939C7.76874 13.801 7.82925 13.8546 7.89982 13.8757C7.96141 13.8941 8.02881 13.8941 8.0904 13.8757C8.16097 13.8546 8.22147 13.801 8.34248 13.6939C9.42403 12.7361 12.724 9.77674 13.8144 8.3736C15.1259 6.68598 14.9195 4.28525 13.2207 2.87334C11.522 1.46144 9.32801 1.8656 7.99511 3.42388Z" stroke="#18172A" stroke-width="1.3" stroke-linecap="round" stroke-linejoin="round" />
  </symbol>

  <symbol id="comparCard" width="16" height="16" viewBox="0 0 16 16" fill="none" xmlns="http://www.w3.org/2000/svg">
    <path d="M2 7.33333L2 14M10 7.33333L10 14M6 2L6 14M14 2V14" stroke="currentColor" stroke-width="1.3" stroke-linecap="round" stroke-linejoin="round" />
  </symbol>

  <symbol id="btnSwiper" width="16" height="16" viewBox="0 0 16 16" fill="none" xmlns="http://www.w3.org/2000/svg">
    <path d="M6 13L10 9L6 5" stroke="#4263F7" stroke-width="1.3" stroke-linecap="round" stroke-linejoin="round" />
  </symbol>

  <symbol id="starReviews" width="17" height="16" viewBox="0 0 17 16" fill="none" xmlns="http://www.w3.org/2000/svg">
    <path d="M8.18843 2.30205C8.34209 1.99076 8.41892 1.83511 8.52322 1.78538C8.61396 1.74211 8.71939 1.74211 8.81014 1.78538C8.91444 1.83511 8.99126 1.99076 9.14492 2.30205L10.6027 5.25536C10.6481 5.34726 10.6708 5.39321 10.7039 5.42889C10.7332 5.46048 10.7684 5.48607 10.8075 5.50425C10.8517 5.52479 10.9024 5.5322 11.0038 5.54702L14.2647 6.02364C14.608 6.07383 14.7797 6.09893 14.8592 6.1828C14.9283 6.25576 14.9608 6.35603 14.9477 6.45569C14.9325 6.57022 14.8082 6.69129 14.5596 6.93342L12.201 9.23078C12.1274 9.3024 12.0907 9.33821 12.067 9.38081C12.0459 9.41854 12.0325 9.45998 12.0273 9.50284C12.0214 9.55125 12.0301 9.60183 12.0474 9.703L12.604 12.9479C12.6627 13.2902 12.692 13.4613 12.6369 13.5628C12.5889 13.6512 12.5036 13.7132 12.4047 13.7315C12.2911 13.7526 12.1374 13.6717 11.8301 13.5101L8.91492 11.9771C8.82409 11.9293 8.77867 11.9054 8.73083 11.896C8.68847 11.8877 8.64489 11.8877 8.60253 11.896C8.55468 11.9054 8.50927 11.9293 8.41844 11.9771L5.50328 13.5101C5.19594 13.6717 5.04227 13.7526 4.92865 13.7315C4.82979 13.7132 4.74448 13.6512 4.69649 13.5628C4.64133 13.4613 4.67068 13.2902 4.72938 12.9479L5.28592 9.703C5.30327 9.60183 5.31195 9.55125 5.30608 9.50284C5.30088 9.45998 5.28741 9.41854 5.2664 9.38081C5.24268 9.33821 5.20592 9.3024 5.13239 9.23078L2.77371 6.93342C2.52511 6.69129 2.40081 6.57022 2.38568 6.45569C2.37252 6.35603 2.40504 6.25576 2.47417 6.1828C2.55362 6.09893 2.72531 6.07383 3.0687 6.02364L6.32954 5.54702C6.43095 5.5322 6.48165 5.52479 6.52581 5.50425C6.56491 5.48607 6.60011 5.46048 6.62946 5.42889C6.6626 5.39321 6.68529 5.34726 6.73065 5.25536L8.18843 2.30205Z" fill="#F69152" />
  </symbol>

  <symbol id="btnQuestion" width="20" height="20" viewBox="0 0 20 20" fill="none" xmlns="http://www.w3.org/2000/svg">
    <path d="M5 8.75L10 13.75L15 8.75" stroke="#9D9CA4" stroke-width="1.3" stroke-linecap="round" stroke-linejoin="round" />
  </symbol>

  <symbol id="markerMain" width="17" height="16" viewBox="0 0 17 16" fill="none" xmlns="http://www.w3.org/2000/svg">
    <path d="M7.23417 2.66666C8.07587 1.84187 9.22863 1.33333 10.5002 1.33333C13.0775 1.33333 15.1668 3.42267 15.1668 5.99999C15.1668 7.27155 14.6583 8.42433 13.8335 9.26602M5.50016 8.66666L6.50016 7.99999V11.6667M5.50016 11.6667H7.50016M11.1668 9.99999C11.1668 12.5773 9.07749 14.6667 6.50016 14.6667C3.92283 14.6667 1.8335 12.5773 1.8335 9.99999C1.8335 7.42267 3.92283 5.33333 6.50016 5.33333C9.07749 5.33333 11.1668 7.42267 11.1668 9.99999Z" stroke="#4263F7" stroke-width="1.3" stroke-linecap="round" stroke-linejoin="round" />
  </symbol>

  <symbol id="curve" width="33" height="32" viewBox="0 0 33 32" fill="none" xmlns="http://www.w3.org/2000/svg">
    <path d="M29.8332 9.33333L19.3417 19.8248C18.8136 20.3529 18.5496 20.6169 18.2452 20.7158C17.9774 20.8028 17.6889 20.8028 17.4211 20.7158C17.1167 20.6169 16.8527 20.3529 16.3247 19.8248L12.675 16.1752C12.147 15.6471 11.883 15.3831 11.5785 15.2842C11.3107 15.1972 11.0223 15.1972 10.7545 15.2842C10.45 15.3831 10.186 15.6471 9.65801 16.1752L3.1665 22.6667M29.8332 9.33333H20.4998M29.8332 9.33333V18.6667" stroke="#18172A" stroke-width="3" stroke-linecap="round" stroke-linejoin="round" />
  </symbol>

  <symbol id="crossOne" width="32" height="32" viewBox="0 0 32 32" fill="none" xmlns="http://www.w3.org/2000/svg">
    <path d="M22.6668 9.33334L9.3335 22.6667M9.3335 9.33334L22.6668 22.6667" stroke="#18172A" stroke-width="3" stroke-linecap="round" stroke-linejoin="round" />
  </symbol>

  <symbol id="home" width="16" height="16" viewBox="0 0 16 16" fill="none" xmlns="http://www.w3.org/2000/svg">
    <path d="M6 14V9.06666C6 8.69329 6 8.5066 6.07266 8.364C6.13658 8.23855 6.23857 8.13657 6.36401 8.07265C6.50661 7.99999 6.6933 7.99999 7.06667 7.99999H8.93333C9.3067 7.99999 9.49339 7.99999 9.63599 8.07265C9.76144 8.13657 9.86342 8.23855 9.92734 8.364C10 8.5066 10 8.69329 10 9.06666V14M7.34513 1.84267L2.82359 5.35942C2.52135 5.5945 2.37022 5.71204 2.26135 5.85924C2.16491 5.98963 2.09307 6.13652 2.04935 6.2927C2 6.46901 2 6.66046 2 7.04337V11.8667C2 12.6134 2 12.9868 2.14532 13.272C2.27316 13.5229 2.47713 13.7268 2.72801 13.8547C3.01323 14 3.3866 14 4.13333 14H11.8667C12.6134 14 12.9868 14 13.272 13.8547C13.5229 13.7268 13.7268 13.5229 13.8547 13.272C14 12.9868 14 12.6134 14 11.8667V7.04337C14 6.66046 14 6.46901 13.9506 6.2927C13.9069 6.13652 13.8351 5.98963 13.7386 5.85924C13.6298 5.71204 13.4787 5.5945 13.1764 5.35942L8.65487 1.84267C8.42065 1.6605 8.30354 1.56941 8.17423 1.5344C8.06013 1.50351 7.93987 1.50351 7.82577 1.5344C7.69646 1.56941 7.57935 1.6605 7.34513 1.84267Z" stroke="currentColor" stroke-width="1.3" stroke-linecap="round" stroke-linejoin="round" />
  </symbol>

  <symbol id="pathArr" width="16" height="16" viewBox="0 0 16 16" fill="none" xmlns="http://www.w3.org/2000/svg">
    <path d="M6 13L10 9L6 5" stroke="currentColor" stroke-width="1.3" stroke-linecap="round" stroke-linejoin="round" />
  </symbol>

  <symbol id="download" width="16" height="16" viewBox="0 0 16 16" fill="none" xmlns="http://www.w3.org/2000/svg">
    <path d="M14 10V10.8C14 11.9201 14 12.4802 13.782 12.908C13.5903 13.2843 13.2843 13.5903 12.908 13.782C12.4802 14 11.9201 14 10.8 14H5.2C4.07989 14 3.51984 14 3.09202 13.782C2.71569 13.5903 2.40973 13.2843 2.21799 12.908C2 12.4802 2 11.9201 2 10.8V10M11.3333 6.66667L8 10M8 10L4.66667 6.66667M8 10V2" stroke="#303040" stroke-width="1.3" stroke-linecap="round" stroke-linejoin="round" />
  </symbol>

  <symbol id="dropDown1" width="20" height="20" viewBox="0 0 20 20" fill="none" xmlns="http://www.w3.org/2000/svg">
    <path d="M5 8.75L10 13.75L15 8.75" stroke="currentColor" stroke-width="1.3" stroke-linecap="round" stroke-linejoin="round" />
  </symbol>

  <symbol id="allProducts" width="20" height="20" viewBox="0 0 20 20" fill="none" xmlns="http://www.w3.org/2000/svg">
    <path d="M7 2.5H3.83333C3.36662 2.5 3.13327 2.5 2.95501 2.59083C2.79821 2.67072 2.67072 2.79821 2.59083 2.95501C2.5 3.13327 2.5 3.36662 2.5 3.83333V7C2.5 7.46671 2.5 7.70007 2.59083 7.87833C2.67072 8.03513 2.79821 8.16261 2.95501 8.24251C3.13327 8.33333 3.36662 8.33333 3.83333 8.33333H7C7.46671 8.33333 7.70007 8.33333 7.87833 8.24251C8.03513 8.16261 8.16261 8.03513 8.24251 7.87833C8.33333 7.70007 8.33333 7.46671 8.33333 7V3.83333C8.33333 3.36662 8.33333 3.13327 8.24251 2.95501C8.16261 2.79821 8.03513 2.67072 7.87833 2.59083C7.70007 2.5 7.46671 2.5 7 2.5Z" stroke="currentColor" stroke-width="1.5" stroke-linecap="round" stroke-linejoin="round" />
    <path d="M16.1667 2.5H13C12.5333 2.5 12.2999 2.5 12.1217 2.59083C11.9649 2.67072 11.8374 2.79821 11.7575 2.95501C11.6667 3.13327 11.6667 3.36662 11.6667 3.83333V7C11.6667 7.46671 11.6667 7.70007 11.7575 7.87833C11.8374 8.03513 11.9649 8.16261 12.1217 8.24251C12.2999 8.33333 12.5333 8.33333 13 8.33333H16.1667C16.6334 8.33333 16.8667 8.33333 17.045 8.24251C17.2018 8.16261 17.3293 8.03513 17.4092 7.87833C17.5 7.70007 17.5 7.46671 17.5 7V3.83333C17.5 3.36662 17.5 3.13327 17.4092 2.95501C17.3293 2.79821 17.2018 2.67072 17.045 2.59083C16.8667 2.5 16.6334 2.5 16.1667 2.5Z" stroke="currentColor" stroke-width="1.5" stroke-linecap="round" stroke-linejoin="round" />
    <path d="M16.1667 11.6667H13C12.5333 11.6667 12.2999 11.6667 12.1217 11.7575C11.9649 11.8374 11.8374 11.9649 11.7575 12.1217C11.6667 12.2999 11.6667 12.5333 11.6667 13V16.1667C11.6667 16.6334 11.6667 16.8667 11.7575 17.045C11.8374 17.2018 11.9649 17.3293 12.1217 17.4092C12.2999 17.5 12.5333 17.5 13 17.5H16.1667C16.6334 17.5 16.8667 17.5 17.045 17.4092C17.2018 17.3293 17.3293 17.2018 17.4092 17.045C17.5 16.8667 17.5 16.6334 17.5 16.1667V13C17.5 12.5333 17.5 12.2999 17.4092 12.1217C17.3293 11.9649 17.2018 11.8374 17.045 11.7575C16.8667 11.6667 16.6334 11.6667 16.1667 11.6667Z" stroke="currentColor" stroke-width="1.5" stroke-linecap="round" stroke-linejoin="round" />
    <path d="M7 11.6667H3.83333C3.36662 11.6667 3.13327 11.6667 2.95501 11.7575C2.79821 11.8374 2.67072 11.9649 2.59083 12.1217C2.5 12.2999 2.5 12.5333 2.5 13V16.1667C2.5 16.6334 2.5 16.8667 2.59083 17.045C2.67072 17.2018 2.79821 17.3293 2.95501 17.4092C3.13327 17.5 3.36662 17.5 3.83333 17.5H7C7.46671 17.5 7.70007 17.5 7.87833 17.4092C8.03513 17.3293 8.16261 17.2018 8.24251 17.045C8.33333 16.8667 8.33333 16.6334 8.33333 16.1667V13C8.33333 12.5333 8.33333 12.2999 8.24251 12.1217C8.16261 11.9649 8.03513 11.8374 7.87833 11.7575C7.70007 11.6667 7.46671 11.6667 7 11.6667Z" stroke="currentColor" stroke-width="1.5" stroke-linecap="round" stroke-linejoin="round" />
  </symbol>

  <symbol id="recommend" width="20" height="20" viewBox="0 0 20 20" fill="none" xmlns="http://www.w3.org/2000/svg">
    <path d="M4.16663 10.0001C4.16663 6.77842 6.7783 4.16675 9.99996 4.16675M13.7499 6.25008L9.99988 10.0001M18.3333 10.0001C18.3333 14.6025 14.6023 18.3334 9.99996 18.3334C5.39759 18.3334 1.66663 14.6025 1.66663 10.0001C1.66663 5.39771 5.39759 1.66675 9.99996 1.66675C14.6023 1.66675 18.3333 5.39771 18.3333 10.0001ZM10.8333 10.0001C10.8333 10.4603 10.4602 10.8334 9.99996 10.8334C9.53972 10.8334 9.16663 10.4603 9.16663 10.0001C9.16663 9.53984 9.53972 9.16675 9.99996 9.16675C10.4602 9.16675 10.8333 9.53984 10.8333 10.0001Z" stroke="currentColor" stroke-width="1.5" stroke-linecap="round" stroke-linejoin="round" />
  </symbol>

  <symbol id="discount" width="20" height="20" viewBox="0 0 20 20" fill="none" xmlns="http://www.w3.org/2000/svg">
    <path d="M7.49996 7.50008H7.50829M12.5 12.5001H12.5083M13.3333 6.66675L6.66663 13.3334M14.9176 4.1655C15.0892 4.58052 15.4186 4.91041 15.8333 5.08264L17.2877 5.68506C17.7027 5.85698 18.0324 6.18674 18.2044 6.6018C18.3763 7.01685 18.3763 7.4832 18.2044 7.89825L17.6024 9.35158C17.4304 9.76682 17.4302 10.2336 17.6029 10.6487L18.2039 12.1016C18.2891 12.3071 18.333 12.5275 18.333 12.75C18.333 12.9726 18.2892 13.1929 18.2041 13.3985C18.1189 13.6041 17.9941 13.7909 17.8367 13.9483C17.6793 14.1056 17.4925 14.2304 17.2869 14.3155L15.8336 14.9175C15.4186 15.0891 15.0887 15.4185 14.9165 15.8332L14.3141 17.2876C14.1422 17.7027 13.8124 18.0324 13.3974 18.2043C12.9823 18.3763 12.516 18.3763 12.101 18.2043L10.6477 17.6023C10.2326 17.4308 9.76648 17.4312 9.35169 17.6033L7.89737 18.2049C7.48256 18.3764 7.01664 18.3763 6.60193 18.2045C6.18723 18.0327 5.85767 17.7033 5.68564 17.2887L5.08306 15.8339C4.91146 15.4189 4.58208 15.089 4.16733 14.9168L2.71301 14.3143C2.29815 14.1425 1.96851 13.813 1.79653 13.3981C1.62455 12.9833 1.62432 12.5172 1.79588 12.1022L2.39785 10.6489C2.56934 10.2338 2.56899 9.76762 2.39687 9.35282L1.79577 7.8974C1.71055 7.69183 1.66666 7.47148 1.66663 7.24894C1.66659 7.0264 1.7104 6.80604 1.79556 6.60044C1.88072 6.39484 2.00555 6.20804 2.16293 6.05071C2.32031 5.89338 2.50715 5.7686 2.71276 5.6835L4.16604 5.08151C4.58069 4.91006 4.91036 4.58108 5.08271 4.1668L5.68511 2.71242C5.85703 2.29737 6.18677 1.96761 6.60181 1.79569C7.01685 1.62377 7.48318 1.62377 7.89822 1.79569L9.3515 2.39768C9.76655 2.56918 10.2327 2.56882 10.6475 2.3967L12.1024 1.79662C12.5174 1.6248 12.9837 1.62483 13.3986 1.79672C13.8136 1.96861 14.1433 2.29827 14.3152 2.71322L14.9178 4.16802L14.9176 4.1655ZM7.91663 7.50008C7.91663 7.7302 7.73008 7.91675 7.49996 7.91675C7.26984 7.91675 7.08329 7.7302 7.08329 7.50008C7.08329 7.26996 7.26984 7.08341 7.49996 7.08341C7.73008 7.08341 7.91663 7.26996 7.91663 7.50008ZM12.9166 12.5001C12.9166 12.7302 12.7301 12.9167 12.5 12.9167C12.2698 12.9167 12.0833 12.7302 12.0833 12.5001C12.0833 12.27 12.2698 12.0834 12.5 12.0834C12.7301 12.0834 12.9166 12.27 12.9166 12.5001Z" stroke="currentColor" stroke-width="1.5" stroke-linecap="round" stroke-linejoin="round" />
  </symbol>

  <symbol id="news" width="20" height="20" viewBox="0 0 20 20" fill="none" xmlns="http://www.w3.org/2000/svg">
    <path d="M6.66663 6.66663H6.67496M1.66663 4.33329L1.66663 8.06205C1.66663 8.46971 1.66663 8.67353 1.71268 8.86534C1.7535 9.03541 1.82084 9.19798 1.91223 9.3471C2.0153 9.51529 2.15942 9.65942 2.44767 9.94767L8.8382 16.3382C9.82824 17.3282 10.3233 17.8233 10.8941 18.0087C11.3962 18.1719 11.9371 18.1719 12.4392 18.0087C13.01 17.8233 13.505 17.3282 14.4951 16.3382L16.3382 14.4951C17.3282 13.505 17.8233 13.01 18.0087 12.4392C18.1719 11.9371 18.1719 11.3962 18.0087 10.8941C17.8233 10.3233 17.3282 9.82824 16.3382 8.8382L9.94767 2.44767C9.65942 2.15942 9.51529 2.0153 9.3471 1.91223C9.19798 1.82084 9.0354 1.7535 8.86534 1.71268C8.67353 1.66663 8.46971 1.66663 8.06205 1.66663L4.33329 1.66663C3.39987 1.66663 2.93316 1.66663 2.57664 1.84828C2.26304 2.00807 2.00807 2.26304 1.84828 2.57664C1.66663 2.93316 1.66663 3.39987 1.66663 4.33329ZM7.08329 6.66663C7.08329 6.89674 6.89675 7.08329 6.66663 7.08329C6.43651 7.08329 6.24996 6.89674 6.24996 6.66663C6.24996 6.43651 6.43651 6.24996 6.66663 6.24996C6.89675 6.24996 7.08329 6.43651 7.08329 6.66663Z" stroke="currentColor" stroke-width="1.5" stroke-linecap="round" stroke-linejoin="round" />
  </symbol>

  <symbol id="checkboxChecked" width="16" height="16" viewBox="0 0 16 16" fill="none" xmlns="http://www.w3.org/2000/svg">
    <path d="M13.3334 4L6.00008 11.3333L2.66675 8" stroke="#EBEBED" stroke-width="1.3" stroke-linecap="round" stroke-linejoin="round" />
  </symbol>

  <symbol id="btnOpenFilteer" width="16" height="16" viewBox="0 0 16 16" fill="none" xmlns="http://www.w3.org/2000/svg">
    <path d="M2 5.33334L10 5.33334M10 5.33334C10 6.43791 10.8954 7.33334 12 7.33334C13.1046 7.33334 14 6.43791 14 5.33334C14 4.22877 13.1046 3.33334 12 3.33334C10.8954 3.33334 10 4.22877 10 5.33334ZM6 10.6667L14 10.6667M6 10.6667C6 11.7712 5.10457 12.6667 4 12.6667C2.89543 12.6667 2 11.7712 2 10.6667C2 9.56211 2.89543 8.66668 4 8.66668C5.10457 8.66668 6 9.56211 6 10.6667Z" stroke="currentColor" stroke-width="1.3" stroke-linecap="round" stroke-linejoin="round" />
  </symbol>

  <symbol id="linkNext" width="16" height="16" viewBox="0 0 16 16" fill="none" xmlns="http://www.w3.org/2000/svg">
    <path d="M3.33398 8.00001H12.6673M12.6673 8.00001L8.00065 3.33334M12.6673 8.00001L8.00065 12.6667" stroke="#4263F7" stroke-width="1.3" stroke-linecap="round" stroke-linejoin="round" />
  </symbol>

  <symbol id="mail" width="24" height="24" viewBox="0 0 24 24" fill="none" xmlns="http://www.w3.org/2000/svg">
    <path d="M2 7L10.1649 12.7154C10.8261 13.1783 11.1567 13.4097 11.5163 13.4993C11.8339 13.5785 12.1661 13.5785 12.4837 13.4993C12.8433 13.4097 13.1739 13.1783 13.8351 12.7154L22 7M6.8 20H17.2C18.8802 20 19.7202 20 20.362 19.673C20.9265 19.3854 21.3854 18.9265 21.673 18.362C22 17.7202 22 16.8802 22 15.2V8.8C22 7.11984 22 6.27976 21.673 5.63803C21.3854 5.07354 20.9265 4.6146 20.362 4.32698C19.7202 4 18.8802 4 17.2 4H6.8C5.11984 4 4.27976 4 3.63803 4.32698C3.07354 4.6146 2.6146 5.07354 2.32698 5.63803C2 6.27976 2 7.11984 2 8.8V15.2C2 16.8802 2 17.7202 2.32698 18.362C2.6146 18.9265 3.07354 19.3854 3.63803 19.673C4.27976 20 5.11984 20 6.8 20Z" stroke="#4263F7" stroke-width="2" stroke-linecap="round" stroke-linejoin="round" />
  </symbol>

  <symbol id="estimationStar" width="21" height="20" viewBox="0 0 21 20" fill="none" xmlns="http://www.w3.org/2000/svg">
    <path d="M9.90156 2.87774C10.0936 2.48863 10.1897 2.29407 10.32 2.23191C10.4335 2.17782 10.5653 2.17782 10.6787 2.23191C10.8091 2.29407 10.9051 2.48863 11.0972 2.87774L12.9194 6.56938C12.9761 6.68426 13.0045 6.7417 13.0459 6.78629C13.0826 6.82578 13.1266 6.85777 13.1754 6.8805C13.2306 6.90617 13.294 6.91543 13.4208 6.93396L17.4968 7.52973C17.9261 7.59247 18.1407 7.62384 18.24 7.72868C18.3264 7.81989 18.3671 7.94523 18.3506 8.06979C18.3317 8.21296 18.1763 8.3643 17.8656 8.66696L14.9172 11.5387C14.8253 11.6282 14.7794 11.6729 14.7497 11.7262C14.7234 11.7734 14.7066 11.8252 14.7001 11.8787C14.6928 11.9392 14.7036 12.0025 14.7253 12.1289L15.421 16.1851C15.4944 16.6129 15.531 16.8268 15.4621 16.9537C15.4021 17.0642 15.2955 17.1416 15.1719 17.1645C15.0299 17.1909 14.8378 17.0899 14.4536 16.8878L10.8097 14.9715C10.6961 14.9118 10.6394 14.8819 10.5795 14.8702C10.5266 14.8598 10.4721 14.8598 10.4192 14.8702C10.3594 14.8819 10.3026 14.9118 10.1891 14.9715L6.54512 16.8878C6.16094 17.0899 5.96886 17.1909 5.82683 17.1645C5.70325 17.1416 5.59662 17.0642 5.53663 16.9537C5.46768 16.8268 5.50437 16.6129 5.57774 16.1851L6.27342 12.1289C6.29511 12.0025 6.30595 11.9392 6.29862 11.8787C6.29212 11.8252 6.27527 11.7734 6.24902 11.7262C6.21937 11.6729 6.17341 11.6282 6.0815 11.5387L3.13315 8.66696C2.8224 8.3643 2.66703 8.21296 2.64812 8.06979C2.63167 7.94523 2.67231 7.81989 2.75872 7.72868C2.85804 7.62384 3.07266 7.59247 3.50189 7.52973L7.57794 6.93396C7.7047 6.91543 7.76808 6.90617 7.82328 6.8805C7.87215 6.85777 7.91615 6.82578 7.95284 6.78629C7.99427 6.7417 8.02262 6.68426 8.07933 6.56938L9.90156 2.87774Z" fill="#F69152" />
  </symbol>

  <symbol id="linkTel" width="16" height="16" viewBox="0 0 16 16" fill="none" xmlns="http://www.w3.org/2000/svg">
    <path d="M5.58685 5.90223C6.05085 6.86865 6.68337 7.77441 7.48443 8.57546C8.28548 9.37651 9.19124 10.009 10.1577 10.473C10.2408 10.5129 10.2823 10.5329 10.3349 10.5482C10.5218 10.6027 10.7513 10.5636 10.9096 10.4502C10.9542 10.4183 10.9923 10.3802 11.0685 10.304C11.3016 10.071 11.4181 9.95443 11.5353 9.87824C11.9772 9.59091 12.5469 9.59091 12.9889 9.87824C13.106 9.95443 13.2226 10.071 13.4556 10.304L13.5856 10.4339C13.9398 10.7882 14.117 10.9654 14.2132 11.1556C14.4046 11.534 14.4046 11.9809 14.2132 12.3592C14.117 12.5495 13.9399 12.7266 13.5856 13.0809L13.4805 13.186C13.1274 13.5391 12.9508 13.7156 12.7108 13.8505C12.4445 14.0001 12.0308 14.1077 11.7253 14.1068C11.45 14.1059 11.2619 14.0525 10.8856 13.9457C8.86333 13.3718 6.95509 12.2888 5.36311 10.6968C3.77112 9.10479 2.68814 7.19655 2.11416 5.17429C2.00735 4.79799 1.95395 4.60984 1.95313 4.33455C1.95222 4.02906 2.0598 3.6154 2.20941 3.34907C2.34424 3.10904 2.52078 2.9325 2.87386 2.57942L2.97895 2.47433C3.33325 2.12004 3.5104 1.94289 3.70065 1.84666C4.07903 1.65528 4.52587 1.65528 4.90424 1.84666C5.0945 1.94289 5.27164 2.12004 5.62594 2.47433L5.75585 2.60424C5.98892 2.83732 6.10546 2.95385 6.18165 3.07104C6.46898 3.51296 6.46898 4.08268 6.18165 4.52461C6.10546 4.6418 5.98892 4.75833 5.75585 4.9914C5.67964 5.06761 5.64154 5.10571 5.60965 5.15026C5.4963 5.30854 5.45717 5.53805 5.51165 5.72495C5.52698 5.77754 5.54694 5.81911 5.58685 5.90223Z" stroke="#18172A" stroke-width="1.3" stroke-linecap="round" stroke-linejoin="round" />
  </symbol>

  <symbol id="linkTg1" width="16" height="16" viewBox="0 0 16 16" fill="none" xmlns="http://www.w3.org/2000/svg">
    <path fill-rule="evenodd" clip-rule="evenodd" d="M1.95856 7.1755C5.71589 5.48736 8.21719 4.36563 9.47321 3.82142C13.048 2.27766 13.7995 2.01111 14.2826 2C14.3899 2 14.6261 2.02221 14.7871 2.15549C14.916 2.26655 14.9482 2.41093 14.9696 2.52199C14.9911 2.63306 15.0126 2.86629 14.9911 3.04399C14.7979 5.15417 13.9605 10.2741 13.5311 12.6287C13.3486 13.6282 12.9944 13.9614 12.6508 13.9947C11.8994 14.0614 11.3304 13.4838 10.6111 12.9952C9.47321 12.2288 8.83983 11.7513 7.7341 10.996C6.45661 10.1298 7.28323 9.65219 8.01322 8.87475C8.20645 8.67484 11.5022 5.5651 11.5666 5.28744C11.5773 5.25412 11.5773 5.12085 11.5022 5.05421C11.427 4.98757 11.3197 5.00979 11.2338 5.032C11.1157 5.05421 9.31218 6.29811 5.80177 8.75259C5.28648 9.11909 4.82486 9.29679 4.40619 9.28569C3.94458 9.27458 3.06429 9.01913 2.39871 8.79701C1.59356 8.53046 0.949452 8.38608 1.00313 7.91962C1.03533 7.67528 1.35739 7.43094 1.95856 7.1755Z" fill="#239BD5" />
  </symbol>

  <symbol id="anchorIcon" width="16" height="16" viewBox="0 0 16 16" fill="none" xmlns="http://www.w3.org/2000/svg">
    <path d="M2.66602 2.66666V3.59999C2.66602 5.8402 2.66602 6.96031 3.10199 7.81595C3.48548 8.5686 4.09741 9.18052 4.85005 9.56402C5.7057 9.99999 6.82581 9.99999 9.06602 9.99999H13.3327M13.3327 9.99999L9.99935 6.66666M13.3327 9.99999L9.99935 13.3333" stroke="currentColor" stroke-width="1.1" stroke-linecap="round" stroke-linejoin="round" />
  </symbol>

  <symbol id="deleteList" width="16" height="16" viewBox="0 0 16 16" fill="none" xmlns="http://www.w3.org/2000/svg">
    <path d="M10.6667 3.99999V3.46666C10.6667 2.71992 10.6667 2.34656 10.5213 2.06134C10.3935 1.81046 10.1895 1.60648 9.93865 1.47865C9.65344 1.33333 9.28007 1.33333 8.53333 1.33333H7.46667C6.71993 1.33333 6.34656 1.33333 6.06135 1.47865C5.81046 1.60648 5.60649 1.81046 5.47866 2.06134C5.33333 2.34656 5.33333 2.71992 5.33333 3.46666V3.99999M6.66667 7.66666V11M9.33333 7.66666V11M2 3.99999H14M12.6667 3.99999V11.4667C12.6667 12.5868 12.6667 13.1468 12.4487 13.5746C12.2569 13.951 11.951 14.2569 11.5746 14.4487C11.1468 14.6667 10.5868 14.6667 9.46667 14.6667H6.53333C5.41323 14.6667 4.85318 14.6667 4.42535 14.4487C4.04903 14.2569 3.74307 13.951 3.55132 13.5746C3.33333 13.1468 3.33333 12.5868 3.33333 11.4667V3.99999" stroke="#303040" stroke-width="1.3" stroke-linecap="round" stroke-linejoin="round" />
  </symbol>

  <symbol id="btnCloseCard8" width="20" height="20" viewBox="0 0 20 20" fill="none" xmlns="http://www.w3.org/2000/svg">
    <path d="M15 5L5 15M5 5L15 15" stroke="#18172A" stroke-width="1.3" stroke-linecap="round" stroke-linejoin="round" />
  </symbol>
</svg>