<svg xmlns="http://www.w3.org/2000/svg">

  <symbol id="search1" width="18" height="18" viewBox="0 0 18 18" fill="none" xmlns="http://www.w3.org/2000/svg">
    <path d="M15.75 15.75L11.2501 11.25M12.75 7.5C12.75 10.3995 10.3995 12.75 7.5 12.75C4.6005 12.75 2.25 10.3995 2.25 7.5C2.25 4.6005 4.6005 2.25 7.5 2.25C10.3995 2.25 12.75 4.6005 12.75 7.5Z" stroke="#9D9CA4" stroke-width="1.3" stroke-linecap="round" stroke-linejoin="round" />
  </symbol>

  <symbol id="search2" width="20" height="20" viewBox="0 0 20 20" fill="none" xmlns="http://www.w3.org/2000/svg">
    <path d="M17.5 17.5L12.5001 12.5M14.1667 8.33333C14.1667 11.555 11.555 14.1667 8.33333 14.1667C5.11167 14.1667 2.5 11.555 2.5 8.33333C2.5 5.11167 5.11167 2.5 8.33333 2.5C11.555 2.5 14.1667 5.11167 14.1667 8.33333Z" stroke="#18172A" stroke-width="1.3" stroke-linecap="round" stroke-linejoin="round" />
  </symbol>

  <symbol id="catalogDrop" width="21" height="20" viewBox="0 0 21 20" fill="none" xmlns="http://www.w3.org/2000/svg">
    <path d="M5.5 8.75L10.5 13.75L15.5 8.75" stroke="currentColor" stroke-width="1.3" stroke-linecap="round" stroke-linejoin="round" />
  </symbol>

  <symbol id="like" width="16" height="16" viewBox="0 0 16 16" fill="none" xmlns="http://www.w3.org/2000/svg">
    <path fill-rule="evenodd" clip-rule="evenodd" d="M7.9956 3.42388C6.6627 1.8656 4.43999 1.44643 2.76996 2.87334C1.09993 4.30026 0.864808 6.68598 2.17629 8.3736C3.26671 9.77674 6.56668 12.7361 7.64823 13.6939C7.76923 13.801 7.82973 13.8546 7.9003 13.8757C7.9619 13.8941 8.0293 13.8941 8.09089 13.8757C8.16146 13.8546 8.22196 13.801 8.34296 13.6939C9.42452 12.7361 12.7245 9.77674 13.8149 8.3736C15.1264 6.68598 14.92 4.28525 13.2212 2.87334C11.5225 1.46144 9.3285 1.8656 7.9956 3.42388Z" stroke="currentColor" stroke-width="1.3" stroke-linecap="round" stroke-linejoin="round" />
  </symbol>

  <symbol id="comparison" width="16" height="16" viewBox="0 0 16 16" fill="none" xmlns="http://www.w3.org/2000/svg">
    <path d="M2 7.33333L2 14M10 7.33333L10 14M6 2L6 14M14 2V14" stroke="currentColor" stroke-width="1.3" stroke-linecap="round" stroke-linejoin="round" />
  </symbol>

  <symbol id="tg" width="14" height="12" viewBox="0 0 14 12" fill="none" xmlns="http://www.w3.org/2000/svg">
    <path fill-rule="evenodd" clip-rule="evenodd" d="M0.958561 5.1755C4.71589 3.48736 7.21719 2.36563 8.47321 1.82142C12.048 0.277656 12.7995 0.0111062 13.2826 0C13.3899 0 13.6261 0.0222126 13.7871 0.155487C13.916 0.26655 13.9482 0.410931 13.9696 0.521993C13.9911 0.633055 14.0126 0.866286 13.9911 1.04399C13.7979 3.15417 12.9605 8.27414 12.5311 10.6287C12.3486 11.6282 11.9944 11.9614 11.6508 11.9947C10.8994 12.0614 10.3304 11.4838 9.61114 10.9952C8.47321 10.2288 7.83983 9.75127 6.7341 8.99604C5.45661 8.12976 6.28323 7.65219 7.01322 6.87475C7.20645 6.67484 10.5022 3.5651 10.5666 3.28744C10.5773 3.25412 10.5773 3.12085 10.5022 3.05421C10.427 2.98757 10.3197 3.00979 10.2338 3.032C10.1157 3.05421 8.31218 4.29811 4.80177 6.75259C4.28648 7.11909 3.82486 7.29679 3.40619 7.28569C2.94458 7.27458 2.06429 7.01913 1.39871 6.79701C0.593565 6.53046 -0.0505481 6.38608 0.00312793 5.91962C0.0353336 5.67528 0.35739 5.43094 0.958561 5.1755Z" fill="currentColor" />
  </symbol>

  <symbol id="wu" width="16" height="16" viewBox="0 0 16 16" fill="none" xmlns="http://www.w3.org/2000/svg">
    <path d="M0 16L1.13027 11.8917C0.432005 10.6865 0.0652266 9.3193 0.0669134 7.928C0.0687541 3.55644 3.64224 0 8.03351 0C10.1645 0.00107791 12.1646 0.826646 13.6689 2.32526C15.1731 3.82387 16.0008 5.81584 16 7.93436C15.9981 12.3056 12.424 15.8627 8.0334 15.8627H8.02994C6.69676 15.8621 5.38675 15.5292 4.22313 14.8975L0 16Z" fill="currentColor" />
    <path d="M8.03574 1.33931C4.38333 1.33931 1.41304 4.29525 1.41174 7.92854C1.40994 9.16921 1.76089 10.3851 2.424 11.4355L2.58154 11.6848L1.91251 14.1164L4.41863 13.4622L4.66062 13.6049C5.67699 14.2054 6.84234 14.523 8.03076 14.5236H8.03325C11.6828 14.5236 14.6531 11.5673 14.6545 7.93383C14.6573 7.06779 14.4875 6.20982 14.1549 5.40957C13.8223 4.60932 13.3336 3.8827 12.717 3.27178C12.1038 2.65751 11.3743 2.17042 10.5708 1.83871C9.76727 1.507 8.90562 1.33726 8.03574 1.33931Z" fill="#00B327" />
    <path fill-rule="evenodd" clip-rule="evenodd" d="M6.0419 4.61351C5.8927 4.28357 5.7357 4.27688 5.59397 4.27117L5.21242 4.26653C5.07967 4.26653 4.86399 4.31612 4.68165 4.51445C4.49932 4.71279 3.98491 5.19213 3.98491 6.1671C3.98491 7.14206 4.69822 8.08415 4.79762 8.21652C4.89701 8.34889 6.17465 10.4134 8.19797 11.2077C9.87936 11.8678 10.2215 11.7365 10.5866 11.7035C10.9517 11.6706 11.7643 11.2242 11.9301 10.7615C12.0958 10.2987 12.0959 9.90226 12.0462 9.81937C11.9965 9.73647 11.8638 9.68721 11.6646 9.58805C11.4654 9.48888 10.4869 9.00953 10.3044 8.94335C10.122 8.87717 9.98936 8.84429 9.85651 9.04263C9.72366 9.24096 9.34264 9.68711 9.22646 9.81937C9.11028 9.95162 8.99432 9.96822 8.7951 9.86916C8.59587 9.7701 7.95489 9.56078 7.19437 8.88568C6.60265 8.36042 6.20323 7.71174 6.08695 7.51351C5.97066 7.31528 6.0746 7.20792 6.17443 7.10919C6.26376 7.02037 6.37344 6.87776 6.47316 6.7621C6.57288 6.64644 6.60569 6.56377 6.67195 6.43172C6.73821 6.29968 6.70519 6.1837 6.65539 6.08464C6.60558 5.98558 6.21882 5.00544 6.0419 4.61351Z" fill="currentColor" />
  </symbol>
</svg>